<svg version="1.1" viewBox="0.0 0.0 960.0 720.0" fill="none" stroke="none" stroke-linecap="square" stroke-miterlimit="10" xmlns:xlink="http://www.w3.org/1999/xlink" xmlns="http://www.w3.org/2000/svg"><clipPath id="p.0"><path d="m0 0l960.0 0l0 720.0l-960.0 0l0 -720.0z" clip-rule="nonzero"/></clipPath><g clip-path="url(#p.0)"><path fill="#000000" fill-opacity="0.0" d="m0 0l960.0 0l0 720.0l-960.0 0z" fill-rule="evenodd"/><path fill="#cfe2f3" d="m19.82677 149.4112l0 0c0 -7.990967 35.06633 -14.468933 78.32283 -14.468933c43.256508 0 78.32284 6.4779663 78.32284 14.468933l0 57.87578c0 7.990967 -35.06633 14.468933 -78.32284 14.468933c-43.256504 0 -78.32283 -6.4779663 -78.32283 -14.468933z" fill-rule="evenodd"/><path fill="#000000" fill-opacity="0.0" d="m176.47244 149.4112l0 0c0 7.990982 -35.06633 14.468948 -78.32284 14.468948c-43.256504 0 -78.32283 -6.4779663 -78.32283 -14.468948" fill-rule="evenodd"/><path fill="#000000" fill-opacity="0.0" d="m19.82677 149.4112l0 0c0 -7.990967 35.06633 -14.468933 78.32283 -14.468933c43.256508 0 78.32284 6.4779663 78.32284 14.468933l0 57.87578c0 7.990967 -35.06633 14.468933 -78.32284 14.468933c-43.256504 0 -78.32283 -6.4779663 -78.32283 -14.468933z" fill-rule="evenodd"/><path stroke="#000000" stroke-width="1.0" stroke-linejoin="round" stroke-linecap="butt" d="m176.47244 149.4112l0 0c0 7.990982 -35.06633 14.468948 -78.32284 14.468948c-43.256504 0 -78.32283 -6.4779663 -78.32283 -14.468948" fill-rule="evenodd"/><path stroke="#000000" stroke-width="1.0" stroke-linejoin="round" stroke-linecap="butt" d="m19.82677 149.4112l0 0c0 -7.990967 35.06633 -14.468933 78.32283 -14.468933c43.256508 0 78.32284 6.4779663 78.32284 14.468933l0 57.87578c0 7.990967 -35.06633 14.468933 -78.32284 14.468933c-43.256504 0 -78.32283 -6.4779663 -78.32283 -14.468933z" fill-rule="evenodd"/><path fill="#000000" d="m41.546207 195.02354l0 -21.9375l6.625 0l3.984375 14.96875l3.9375 -14.96875l6.640625 0l0 21.9375l-4.109375 0l0 -17.28125l-4.359375 17.28125l-4.265625 0l-4.34375 -17.28125l0 17.28125l-4.109375 0zm34.771275 -5.0625l4.1875 0.703125q-0.796875 2.3125 -2.546875 3.515625q-1.75 1.203125 -4.359375 1.203125q-4.15625 0 -6.140625 -2.703125q-1.578125 -2.171875 -1.578125 -5.484375q0 -3.953125 2.0625 -6.1875q2.078125 -2.234375 5.234375 -2.234375q3.546875 0 5.59375 2.34375q2.046875 2.328125 1.96875 7.171875l-10.546875 0q0.046875 1.875 1.015625 2.921875q0.984375 1.03125 2.4375 1.03125q0.984375 0 1.65625 -0.53125q0.671875 -0.546875 1.015625 -1.75zm0.234375 -4.25q-0.046875 -1.828125 -0.953125 -2.765625q-0.890625 -0.953125 -2.171875 -0.953125q-1.375 0 -2.28125 1.0q-0.890625 1.0 -0.875 2.71875l6.28125 0zm7.2995453 -6.578125l3.875 0l0 2.171875q2.078125 -2.53125 4.953125 -2.53125q1.53125 0 2.640625 0.625q1.125 0.625 1.84375 1.90625q1.046875 -1.28125 2.265625 -1.90625q1.21875 -0.625 2.59375 -0.625q1.75 0 2.953125 0.71875q1.21875 0.703125 1.8125 2.078125q0.4375 1.015625 0.4375 3.296875l0 10.15625l-4.203125 0l0 -9.09375q0 -2.359375 -0.4375 -3.046875q-0.578125 -0.890625 -1.796875 -0.890625q-0.875 0 -1.65625 0.546875q-0.78125 0.53125 -1.125 1.578125q-0.34375 1.03125 -0.34375 3.265625l0 7.640625l-4.203125 0l0 -8.71875q0 -2.3125 -0.234375 -2.984375q-0.21875 -0.671875 -0.6875 -1.0q-0.46875 -0.328125 -1.28125 -0.328125q-0.96875 0 -1.75 0.53125q-0.78125 0.515625 -1.125 1.5q-0.328125 0.984375 -0.328125 3.28125l0 7.71875l-4.203125 0l0 -15.890625zm26.602066 7.71875q0 -2.09375 1.03125 -4.046875q1.03125 -1.96875 2.921875 -3.0q1.890625 -1.03125 4.234375 -1.03125q3.59375 0 5.90625 2.34375q2.3125 2.328125 2.3125 5.90625q0 3.609375 -2.328125 5.984375q-2.328125 2.375 -5.859375 2.375q-2.1875 0 -4.171875 -0.984375q-1.984375 -0.984375 -3.015625 -2.890625q-1.03125 -1.921875 -1.03125 -4.65625zm4.296875 0.21875q0 2.375 1.125 3.640625q1.125 1.25 2.78125 1.25q1.640625 0 2.75 -1.25q1.125 -1.265625 1.125 -3.671875q0 -2.328125 -1.125 -3.578125q-1.109375 -1.265625 -2.75 -1.265625q-1.65625 0 -2.78125 1.265625q-1.125 1.25 -1.125 3.609375zm19.429176 7.953125l-4.21875 0l0 -15.890625l3.90625 0l0 2.25q1.015625 -1.59375 1.8125 -2.09375q0.796875 -0.515625 1.8125 -0.515625q1.4375 0 2.765625 0.78125l-1.296875 3.671875q-1.0625 -0.6875 -1.96875 -0.6875q-0.890625 0 -1.5 0.484375q-0.609375 0.484375 -0.96875 1.765625q-0.34375 1.265625 -0.34375 5.328125l0 4.90625zm5.898941 -15.890625l4.484375 0l3.796875 11.28125l3.71875 -11.28125l4.359375 0l-5.625 15.296875l-1.0 2.765625q-0.546875 1.390625 -1.0625 2.125q-0.5 0.734375 -1.15625 1.1875q-0.640625 0.453125 -1.59375 0.703125q-0.953125 0.265625 -2.140625 0.265625q-1.21875 0 -2.375 -0.25l-0.375 -3.296875q0.984375 0.1875 1.78125 0.1875q1.453125 0 2.15625 -0.859375q0.703125 -0.859375 1.078125 -2.1875l-6.046875 -15.9375z" fill-rule="nonzero"/><path fill="#cfe2f3" d="m50.02362 103.79527l48.125984 -18.866142l48.125984 18.866142l-24.062988 0l0 18.866142l-48.125984 0l0 -18.866142z" fill-rule="evenodd"/><path stroke="#000000" stroke-width="1.0" stroke-linejoin="round" stroke-linecap="butt" d="m50.02362 103.79527l48.125984 -18.866142l48.125984 18.866142l-24.062988 0l0 18.866142l-48.125984 0l0 -18.866142z" fill-rule="evenodd"/><path fill="#cfe2f3" d="m5.6692915 0l198.16534 0l0 72.64829l-198.16534 0z" fill-rule="evenodd"/><path fill="#000000" fill-opacity="0.0" d="m30.43996 0l0 72.64829m148.62402 -72.64829l0 72.64829" fill-rule="evenodd"/><path fill="#000000" fill-opacity="0.0" d="m5.6692915 0l198.16534 0l0 72.64829l-198.16534 0z" fill-rule="evenodd"/><path stroke="#000000" stroke-width="1.0" stroke-linejoin="round" stroke-linecap="butt" d="m30.43996 0l0 72.64829m148.62402 -72.64829l0 72.64829" fill-rule="evenodd"/><path stroke="#000000" stroke-width="1.0" stroke-linejoin="round" stroke-linecap="butt" d="m5.6692915 0l198.16534 0l0 72.64829l-198.16534 0z" fill-rule="evenodd"/><path fill="#000000" d="m40.81496 20.384146l0 -13.828125l4.171875 0l2.515625 9.4375l2.484375 -9.4375l4.1875 0l0 13.828125l-2.59375 0l0 -10.890625l-2.75 10.890625l-2.6875 0l-2.734375 -10.890625l0 10.890625l-2.59375 0zm16.147354 0l0 -13.828125l5.875 0q2.2187538 0 3.2187538 0.375q1.0 0.359375 1.609375 1.3125q0.609375 0.953125 0.609375 2.1875q0 1.546875 -0.921875 2.5625q-0.90625 1.015625 -2.734375 1.28125q0.90625 0.53125 1.5 1.171875q0.59375 0.625 1.59375 2.234375l1.6875 2.703125l-3.34375 0l-2.015625 -3.015625q-1.0781288 -1.609375 -1.4843788 -2.03125q-0.390625 -0.421875 -0.84375 -0.578125q-0.4375 -0.15625 -1.390625 -0.15625l-0.578125 0l0 5.78125l-2.78125 0zm2.78125 -7.984375l2.078125 0q2.0 0 2.5000038 -0.171875q0.5 -0.171875 0.78125 -0.578125q0.296875 -0.421875 0.296875 -1.046875q0 -0.6875 -0.375 -1.109375q-0.375 -0.4375 -1.0625038 -0.5625q-0.328125 -0.046875 -2.03125 -0.046875l-2.1875 0l0 3.515625zm11.645664 0.609375l0 -2.640625l2.65625 0l0 2.640625l-2.65625 0zm0 7.375l0 -2.65625l2.65625 0l0 2.65625l-2.65625 0z" fill-rule="nonzero"/><path fill="#000000" d="m83.919395 10.509146l-2.078125 0l0 2.578125l1.84375 -0.484375l0.359375 2.09375l-2.203125 0.6875l0 4.984375q0 1.65625 -1.578125 1.65625l-1.921875 0l-0.21875 -2.203125l1.625 0q0 0.171875 -0.171875 0.171875l0 -4.03125l-1.046875 0.265625q-0.15625 1.03125 -1.078125 0.109375l-0.484375 -2.203125l2.609375 -0.546875l0 -3.078125l-2.15625 0l0 -2.1875l2.15625 0l0 -4.078125l1.8125 0q1.625 0.171875 0.453125 1.03125l0 3.046875l2.078125 0l0 2.1875zm7.375 3.71875l-5.21875 0l0 4.875q0 0.125 0.046875 0.125l5.796875 0q0.09375 0 0.125 -0.265625l0.375 -2.015625l2.390625 0.4375l-0.421875 2.515625q-0.296875 1.53125 -1.734375 1.53125l-7.125 0q-1.71875 0 -1.71875 -1.734375l0 -14.203125l9.75 0l0 9.46875l-2.265625 0l0 -0.734375zm-5.21875 -6.53125l0 4.328125l1.359375 0l0 -4.328125l-1.359375 0zm3.625 0l0 4.328125l1.59375 0l0 -4.328125l-1.59375 0z" fill-rule="nonzero"/><path fill="#000000" d="m96.31002 20.384146l0 -13.828125l4.171875 0l2.515625 9.4375l2.484375 -9.4375l4.1875 0l0 13.828125l-2.59375 0l0 -10.890625l-2.75 10.890625l-2.6875 0l-2.734375 -10.890625l0 10.890625l-2.59375 0zm21.91298 -3.1875l2.640625 0.4375q-0.5 1.453125 -1.609375 2.21875q-1.09375 0.75 -2.75 0.75q-2.609375 0 -3.859375 -1.703125q-1.0 -1.359375 -1.0 -3.453125q0 -2.484375 1.296875 -3.890625q1.3125 -1.421875 3.296875 -1.421875q2.25 0 3.53125 1.484375q1.296875 1.46875 1.234375 4.515625l-6.640625 0q0.03125 1.1875 0.640625 1.84375q0.625 0.65625 1.53125 0.65625q0.625 0 1.046875 -0.34375q0.421875 -0.34375 0.640625 -1.09375zm0.15625 -2.6875q-0.03125 -1.140625 -0.59375 -1.734375q-0.5625 -0.609375 -1.375 -0.609375q-0.875 0 -1.4375 0.625q-0.5625 0.640625 -0.5625 1.71875l3.96875 0zm4.5931396 -4.140625l2.453125 0l0 1.359375q1.296875 -1.59375 3.1093674 -1.59375q0.96875 0 1.671875 0.40625q0.71875 0.390625 1.171875 1.1875q0.65625 -0.796875 1.421875 -1.1875q0.765625 -0.40625 1.625 -0.40625q1.109375 0 1.875 0.453125q0.765625 0.4375 1.140625 1.3125q0.28125 0.640625 0.28125 2.078125l0 6.40625l-2.65625 0l0 -5.734375q0 -1.484375 -0.28125 -1.921875q-0.359375 -0.5625 -1.125 -0.5625q-0.5625 0 -1.0625 0.34375q-0.484375 0.328125 -0.703125 0.984375q-0.203125 0.65625 -0.203125 2.078125l0 4.8125l-2.65625 0l0 -5.5q0 -1.453125 -0.140625 -1.875q-0.140625 -0.4375 -0.4375 -0.640625q-0.296875 -0.203125 -0.8124924 -0.203125q-0.609375 0 -1.109375 0.328125q-0.484375 0.328125 -0.703125 0.953125q-0.203125 0.625 -0.203125 2.0625l0 4.875l-2.65625 0l0 -10.015625zm16.779549 4.859375q0 -1.3125 0.640625 -2.546875q0.65625 -1.25 1.84375 -1.890625q1.203125 -0.65625 2.671875 -0.65625q2.265625 0 3.71875 1.484375q1.46875 1.46875 1.46875 3.71875q0 2.28125 -1.46875 3.78125q-1.46875 1.484375 -3.703125 1.484375q-1.375 0 -2.625 -0.609375q-1.25 -0.625 -1.90625 -1.828125q-0.640625 -1.203125 -0.640625 -2.9375zm2.703125 0.140625q0 1.5 0.703125 2.296875q0.71875 0.78125 1.765625 0.78125q1.03125 0 1.734375 -0.78125q0.703125 -0.796875 0.703125 -2.3125q0 -1.46875 -0.703125 -2.265625q-0.703125 -0.796875 -1.734375 -0.796875q-1.046875 0 -1.765625 0.796875q-0.703125 0.796875 -0.703125 2.28125zm12.2438965 5.015625l-2.640625 0l0 -10.015625l2.453125 0l0 1.421875q0.640625 -1.015625 1.140625 -1.328125q0.5 -0.328125 1.140625 -0.328125q0.90625 0 1.75 0.5l-0.8125 2.3125q-0.671875 -0.4375 -1.25 -0.4375q-0.5625 0 -0.953125 0.3125q-0.375 0.3125 -0.609375 1.109375q-0.21875 0.796875 -0.21875 3.359375l0 3.09375zm3.7248688 -10.015625l2.828125 0l2.390625 7.109375l2.34375 -7.109375l2.75 0l-3.53125 9.640625l-0.640625 1.75q-0.34375 0.875 -0.671875 1.328125q-0.3125 0.46875 -0.71875 0.75q-0.40625 0.296875 -1.015625 0.453125q-0.59375 0.15625 -1.34375 0.15625q-0.765625 0 -1.5 -0.15625l-0.234375 -2.078125q0.609375 0.125 1.109375 0.125q0.9375 0 1.375 -0.546875q0.4375 -0.53125 0.671875 -1.375l-3.8125 -10.046875z" fill-rule="nonzero"/><path fill="#000000" d="m51.768085 32.837273q-0.6875 1.890625 -2.65625 4.140625l-1.640625 -1.9375q2.671875 -2.703125 3.40625 -7.703125l2.015625 0.671875q1.765625 0.796875 0.109375 1.140625q-0.171875 0.796875 -0.390625 1.5l5.21875 0l-0.390625 10.5q-0.09375 3.34375 -2.765625 3.34375l-2.40625 0l-0.34375 -2.1875l2.375 0q0.671875 0 0.734375 -0.96875l0.34375 -8.5l-3.609375 0zm0.5625 7.125q-1.296875 -1.84375 -2.796875 -3.265625l1.78125 -1.890625q1.796875 1.609375 2.890625 3.171875l-1.875 1.984375zm-9.0 -9.3125q0.359375 -1.109375 0.8125 -3.40625l2.296875 0.875q0.90625 0.890625 -0.125 1.046875q-0.171875 0.734375 -0.53125 1.484375l2.53125 0l0 13.03125l-2.265625 0l0 -0.890625l-2.484375 0l0 1.484375l-2.265625 0l0 -13.625l2.03125 0zm2.71875 2.1875l-2.484375 0l0 2.484375l2.484375 0l0 -2.484375zm0 4.6875l-2.484375 0l0 3.078125l2.484375 0l0 -3.078125zm26.593754 0.53125q0.640625 -1.265625 0.84375 -4.84375l-1.703125 0q0.203125 3.578125 0.859375 4.84375zm3.109375 -4.84375q-0.125 4.328125 -1.6875 7.0q0.96875 1.203125 3.421875 2.46875l-1.390625 2.34375q-2.78125 -1.828125 -3.5 -2.875q-1.4375 1.625 -5.421875 3.203125l-1.078125 -2.1875q4.140625 -1.6875 5.1875 -3.046875q-1.1875 -2.28125 -1.140625 -3.640625q0.09375 0.09375 -0.625 1.046875l-1.859375 -1.4375q2.375 -3.484375 2.859375 -8.640625l2.046875 0.484375q1.28125 0.828125 -0.03125 1.140625q-0.1875 1.078125 -0.421875 1.953125l4.921875 0l0 2.1875l-1.28125 0zm-6.984375 -3.59375q-0.390625 0.953125 -1.234375 2.0l-1.828125 -1.03125q0.796875 -1.28125 1.453125 -2.890625l1.78125 0.859375q0.890625 0.890625 -0.171875 1.0625zm-4.453125 9.875q0.59375 0.171875 1.171875 0.4375q0.328125 -0.390625 0.546875 -1.15625l-1.390625 0q-0.203125 0.453125 -0.328125 0.71875zm-1.4843788 2.625l-1.890625 -1.078125q0.96875 -1.4375 1.40625 -2.265625l-2.5625 0l0 -1.96875l3.40625 0q0.328125 -0.703125 0.65625 -1.703125l1.8750038 0.5q0.9375 0.9375 -0.1875 1.0625l-0.0625 0.140625l4.0 0l0 1.96875l-1.203125 0q-0.3125 1.265625 -0.828125 1.984375q0.25 0.109375 1.34375 0.75l-1.046875 1.875q-1.15625 -0.71875 -1.546875 -0.890625q-1.828125 1.84375 -5.531254 2.328125l-0.8125 -2.09375q3.28125 -0.328125 4.281254 -1.203125q-0.23437881 -0.109375 -0.7500038 -0.296875l-0.546875 0.890625zm0.953125 -14.875l1.5937538 0q1.625 0.171875 0.453125 1.03125l0 2.59375l3.78125 0l0 1.96875l-2.65625 0q0.21875 0.265625 2.234375 1.328125l-1.25 1.9375q-1.640625 -0.984375 -2.109375 -1.53125l0 1.09375l-2.0468788 0l0 -0.6875q-0.53125 0.671875 -2.96875 2.0625l-1.484375 -1.8125q2.671875 -1.375 3.546875 -2.390625l-2.953125 0l0 -1.96875l3.859375 0l0 -3.625zm-1.84375 4.375q-0.6875 -1.453125 -1.796875 -2.5625l1.875 -1.1875q1.15625 1.171875 1.75 2.5l-1.828125 1.25z" fill-rule="nonzero"/><path fill="#000000" d="m80.89309 36.134148q0.09375 -2.140625 0.09375 -4.3125q0 -2.25 -0.09375 -4.09375l13.28125 0q-0.09375 2.0 -0.09375 4.171875q0 2.09375 0.09375 4.234375l-13.28125 0zm9.953125 -0.40625q-0.09375 2.0 -0.09375 4.015625l0 2.78125q3.75 0 5.734375 -0.09375l0 2.25q-1.984375 -0.09375 -3.171875 -0.09375l-11.25 0q-1.65625 0 -3.421875 0.09375l0 -2.25q1.84375 0.09375 5.4375 0.09375l0 -2.703125q0 -2.09375 -0.09375 -4.09375l2.484375 0q-0.09375 2.0 -0.09375 4.09375l0 2.703125l2.078125 0l0 -2.78125q0 -2.03125 -0.078125 -4.015625l2.46875 0zm0.9375 -4.75l0 -1.1875l-8.5 0l0 1.1875l8.5 0zm0 3.015625l0 -0.875l-8.5 0l0 0.875l8.5 0zm-12.5625 3.90625q1.125 -0.453125 2.03125 -1.234375q1.828125 2.890625 2.828125 5.0q-1.140625 0.546875 -2.125 1.265625q-0.84375 -2.015625 -2.734375 -5.03125zm16.671875 0.1875q-0.6875 0.6875 -1.359375 1.921875q-0.671875 1.21875 -1.921875 2.953125q-0.8125 -0.703125 -1.921875 -1.265625q1.890625 -2.671875 2.75 -5.125q1.125 1.015625 2.453125 1.515625z" fill-rule="nonzero"/><path fill="#000000" d="m110.939964 35.993523q1.65625 2.71875 4.53125 4.78125l-1.78125 2.015625q-2.796875 -2.28125 -4.734375 -5.46875l1.984375 -1.328125zm-2.921875 6.703125q0 1.734375 -1.65625 1.734375l-2.40625 0l-0.4375 -2.421875l2.109375 0q0 0.09375 -0.09375 0.09375l0 -6.59375l-7.28125 0l0 -2.40625l16.734375 0l0 2.40625l-6.96875 0l0 7.1875zm-7.3125 -11.5625l0 -2.40625l12.0625 0l0 2.40625l-12.0625 0zm-2.640625 9.921875q2.359375 -1.671875 4.0625 -4.984375l1.84375 1.015625q1.46875 0.890625 -0.15625 1.203125q-1.21875 2.578125 -4.046875 4.796875l-1.703125 -2.03125zm35.265617 -13.15625q1.578125 0.203125 0.4375 1.046875l0 14.265625q0 1.578125 -1.578125 1.578125l-1.8125 0l-0.34375 -2.1875l1.5625 0q0 0.09375 -0.09375 0.09375l0 -14.796875l1.828125 0zm-5.3125 13.25l0 -11.53125l1.8125 0q1.625 0.171875 0.453125 1.03125l0 10.5l-2.265625 0zm-10.249992 -3.75l3.421875 0l0 -2.140625l1.8125 0q1.625 0.171875 0.453125 1.03125l0 1.109375l3.484375 0l0 2.203125l-3.484375 0l0 1.75l3.921875 -0.578125l0.375 2.015625l-9.015625 1.640625q-0.15625 1.03125 -1.0625 0.109375l-0.765625 -2.328125l4.28125 -0.53125l0 -2.078125l-3.421875 0l0 -2.203125zm0.96875 -1.625q-0.15625 1.0 -1.078125 0.078125l-0.59375 -2.359375l2.15625 -0.078125l1.125 -2.953125l-3.09375 0l0 -2.1875l10.140625 0l0 2.1875l-4.53125 0l-1.25 2.8125l2.234375 -0.1875q-0.109375 -0.15625 -1.3125 -1.34375l1.828125 -1.28125q2.0625 1.890625 3.375 4.171875l-1.953125 1.40625l-0.6875 -1.015625l-6.359375 0.75zm30.234367 -1.40625l3.65625 0l0 2.1875l-3.125 0l0 1.4375l4.078125 0l0 2.203125l-4.078125 0l0 4.53125l-2.265625 0l0 -4.53125l-2.109375 0q0 3.515625 -4.765625 5.296875l-0.890625 -2.234375q3.328125 -1.0625 3.375 -3.0625l-3.25 0l0 -2.203125l3.34375 0l0 -1.4375l-2.75 0l0 -2.1875l2.8125 0q-0.125 -0.1875 -0.984375 -1.125l0.46875 -0.40625l-2.78125 0l0 5.40625q0 3.90625 -2.03125 6.578125l-1.84375 -1.609375q1.609375 -2.421875 1.609375 -5.046875l0 -10.265625l14.8125 0l0 4.9375l-2.84375 -0.1875l0.078125 -0.1875q1.75 0.875 0.0625 1.09375l-0.578125 0.8125zm-4.234375 -1.578125q0.078125 0 0.890625 1.3125l-0.34375 0.265625l1.296875 0l0.78125 -1.53125l-2.625 -0.046875zm5.25 -1.921875l0 -1.0l-10.28125 0l0 1.0l10.28125 0zm-2.75 7.125l0 -1.4375l-2.03125 0l0 1.4375l2.03125 0z" fill-rule="nonzero"/><path fill="#000000" d="m52.518085 62.712273q-0.078125 0.03125 -1.1875 -1.0l-4.1875 0q-0.59375 0.703125 -0.890625 0.921875l1.875 0l0 -1.1875l1.828125 0q1.609375 0.21875 0.4375 1.03125l0 0.15625l2.125 0.078125zm5.25 2.484375q-2.15625 -0.546875 -2.546875 -0.828125l0 1.625q0 1.578125 -1.578125 1.578125l-1.5 0l-0.46875 -2.1875l1.375 0q0 0.09375 -0.09375 0.09375l0 -0.875l-2.5625 0l0 3.5625l-2.265625 0l0 -3.5625l-2.046875 0l0 2.828125l-2.265625 0l0 -3.125q-0.53125 0.390625 -2.640625 1.125l-0.8125 -1.96875q2.984375 -1.078125 3.765625 -1.75l-3.203125 0l0 -1.96875l5.09375 0l0.125 -0.1875l-2.84375 0l0 -5.53125l2.15625 0l0 -0.1875l-4.53125 0l0 -1.96875l4.53125 0l0 -1.40625l1.609375 0q1.609375 0.21875 0.4375 1.03125l0 0.375l3.375 0l0 -1.40625l1.609375 0q1.640625 0.21875 0.421875 1.03125l0 0.375l4.6875 0l0 1.96875l-4.6875 0l0 0.1875l2.375 0l0 5.53125l-6.71875 0l-0.125 0.1875l9.21875 0l0 1.96875l-3.03125 0q0.515625 0.359375 3.796875 1.34375l-0.65625 2.140625zm-10.265625 -11.359375l0 0.1875l3.375 0l0 -0.1875l-3.375 0zm-2.15625 1.859375l0 0.25l7.90625 0l0 -0.25l-7.90625 0zm0 1.921875l0 0.265625l7.90625 0l0 -0.265625l-7.90625 0zm21.031254 6.421875l0 -13.140625l2.078125 0q1.671875 0.359375 0.421875 1.1875l0 3.71875l6.0 0l0 2.40625l-6.0 0l0 5.828125l7.71875 0l0 2.421875l-16.890629 0l0 -2.421875l6.671879 0z" fill-rule="nonzero"/><path fill="#cfe2f3" d="m185.4357 164.66536l25.477646 0l0 -13.685043l15.089279 27.370071l-15.089279 27.370087l0 -13.685043l-25.477646 0z" fill-rule="evenodd"/><path stroke="#000000" stroke-width="1.0" stroke-linejoin="round" stroke-linecap="butt" d="m185.4357 164.66536l25.477646 0l0 -13.685043l15.089279 27.370071l-15.089279 27.370087l0 -13.685043l-25.477646 0z" fill-rule="evenodd"/><path fill="#cfe2f3" d="m234.9685 142.02493l198.16534 0l0 72.6483l-198.16534 0z" fill-rule="evenodd"/><path fill="#000000" fill-opacity="0.0" d="m259.73917 142.02493l0 72.6483m148.62402 -72.6483l0 72.6483" fill-rule="evenodd"/><path fill="#000000" fill-opacity="0.0" d="m234.9685 142.02493l198.16534 0l0 72.6483l-198.16534 0z" fill-rule="evenodd"/><path stroke="#000000" stroke-width="1.0" stroke-linejoin="round" stroke-linecap="butt" d="m259.73917 142.02493l0 72.6483m148.62402 -72.6483l0 72.6483" fill-rule="evenodd"/><path stroke="#000000" stroke-width="1.0" stroke-linejoin="round" stroke-linecap="butt" d="m234.9685 142.02493l198.16534 0l0 72.6483l-198.16534 0z" fill-rule="evenodd"/><path fill="#000000" d="m270.11417 173.90909l0 -13.828125l4.171875 0l2.515625 9.4375l2.484375 -9.4375l4.1875 0l0 13.828125l-2.59375 0l0 -10.890625l-2.75 10.890625l-2.6875 0l-2.734375 -10.890625l0 10.890625l-2.59375 0zm24.99112 -5.09375l2.703125 0.859375q-0.625 2.265625 -2.078125 3.375q-1.4375 1.09375 -3.671875 1.09375q-2.75 0 -4.53125 -1.875q-1.765625 -1.890625 -1.765625 -5.15625q0 -3.453125 1.78125 -5.359375q1.78125 -1.921875 4.6875 -1.921875q2.53125 0 4.125 1.5q0.9375 0.890625 1.40625 2.5625l-2.75 0.65625q-0.25 -1.078125 -1.03125 -1.703125q-0.78125 -0.625 -1.890625 -0.625q-1.546875 0 -2.5 1.109375q-0.953125 1.109375 -0.953125 3.578125q0 2.625 0.9375 3.734375q0.953125 1.109375 2.453125 1.109375q1.125 0 1.921875 -0.703125q0.796875 -0.703125 1.15625 -2.234375zm5.5831604 -2.28125l0 -2.640625l2.65625 0l0 2.640625l-2.65625 0zm0 7.375l0 -2.65625l2.65625 0l0 2.65625l-2.65625 0z" fill-rule="nonzero"/><path fill="#000000" d="m313.2186 164.03409l-2.078125 0l0 2.578125l1.84375 -0.484375l0.359375 2.09375l-2.203125 0.6875l0 4.984375q0 1.65625 -1.578125 1.65625l-1.921875 0l-0.21875 -2.203125l1.625 0q0 0.171875 -0.171875 0.171875l0 -4.03125l-1.046875 0.265625q-0.15625 1.03125 -1.078125 0.109375l-0.484375 -2.203125l2.609375 -0.546875l0 -3.078125l-2.15625 0l0 -2.1875l2.15625 0l0 -4.078125l1.8125 0q1.625 0.171875 0.453125 1.03125l0 3.046875l2.078125 0l0 2.1875zm7.375 3.71875l-5.21875 0l0 4.875q0 0.125 0.046875 0.125l5.796875 0q0.09375 0 0.125 -0.265625l0.375 -2.015625l2.390625 0.4375l-0.421875 2.515625q-0.296875 1.53125 -1.734375 1.53125l-7.125 0q-1.71875 0 -1.71875 -1.734375l0 -14.203125l9.75 0l0 9.46875l-2.265625 0l0 -0.734375zm-5.21875 -6.53125l0 4.328125l1.359375 0l0 -4.328125l-1.359375 0zm3.625 0l0 4.328125l1.59375 0l0 -4.328125l-1.59375 0z" fill-rule="nonzero"/><path fill="#000000" d="m325.60922 173.90909l0 -13.828125l4.171875 0l2.515625 9.4375l2.484375 -9.4375l4.1875 0l0 13.828125l-2.59375 0l0 -10.890625l-2.75 10.890625l-2.6875 0l-2.734375 -10.890625l0 10.890625l-2.59375 0zm21.912994 -3.1875l2.640625 0.4375q-0.5 1.453125 -1.609375 2.21875q-1.09375 0.75 -2.75 0.75q-2.609375 0 -3.859375 -1.703125q-1.0 -1.359375 -1.0 -3.453125q0 -2.484375 1.296875 -3.890625q1.3125 -1.421875 3.296875 -1.421875q2.25 0 3.53125 1.484375q1.296875 1.46875 1.234375 4.515625l-6.640625 0q0.03125 1.1875 0.640625 1.84375q0.625 0.65625 1.53125 0.65625q0.625 0 1.046875 -0.34375q0.421875 -0.34375 0.640625 -1.09375zm0.15625 -2.6875q-0.03125 -1.140625 -0.59375 -1.734375q-0.5625 -0.609375 -1.375 -0.609375q-0.875 0 -1.4375 0.625q-0.5625 0.640625 -0.5625 1.71875l3.96875 0zm4.5931396 -4.140625l2.453125 0l0 1.359375q1.296875 -1.59375 3.109375 -1.59375q0.96875 0 1.671875 0.40625q0.71875 0.390625 1.171875 1.1875q0.65625 -0.796875 1.421875 -1.1875q0.765625 -0.40625 1.625 -0.40625q1.109375 0 1.875 0.453125q0.765625 0.4375 1.140625 1.3125q0.28125 0.640625 0.28125 2.078125l0 6.40625l-2.65625 0l0 -5.734375q0 -1.484375 -0.28125 -1.921875q-0.359375 -0.5625 -1.125 -0.5625q-0.5625 0 -1.0625 0.34375q-0.484375 0.328125 -0.703125 0.984375q-0.203125 0.65625 -0.203125 2.078125l0 4.8125l-2.65625 0l0 -5.5q0 -1.453125 -0.140625 -1.875q-0.140625 -0.4375 -0.4375 -0.640625q-0.296875 -0.203125 -0.8125 -0.203125q-0.609375 0 -1.109375 0.328125q-0.484375 0.328125 -0.703125 0.953125q-0.203125 0.625 -0.203125 2.0625l0 4.875l-2.65625 0l0 -10.015625zm16.779541 4.859375q0 -1.3125 0.640625 -2.546875q0.65625 -1.25 1.84375 -1.890625q1.203125 -0.65625 2.671875 -0.65625q2.265625 0 3.71875 1.484375q1.46875 1.46875 1.46875 3.71875q0 2.28125 -1.46875 3.78125q-1.46875 1.484375 -3.703125 1.484375q-1.375 0 -2.625 -0.609375q-1.25 -0.625 -1.90625 -1.828125q-0.640625 -1.203125 -0.640625 -2.9375zm2.703125 0.140625q0 1.5 0.703125 2.296875q0.71875 0.78125 1.765625 0.78125q1.03125 0 1.734375 -0.78125q0.703125 -0.796875 0.703125 -2.3125q0 -1.46875 -0.703125 -2.265625q-0.703125 -0.796875 -1.734375 -0.796875q-1.046875 0 -1.765625 0.796875q-0.703125 0.796875 -0.703125 2.28125zm12.2438965 5.015625l-2.640625 0l0 -10.015625l2.453125 0l0 1.421875q0.640625 -1.015625 1.140625 -1.328125q0.5 -0.328125 1.140625 -0.328125q0.90625 0 1.75 0.5l-0.8125 2.3125q-0.671875 -0.4375 -1.25 -0.4375q-0.5625 0 -0.953125 0.3125q-0.375 0.3125 -0.609375 1.109375q-0.21875 0.796875 -0.21875 3.359375l0 3.09375zm3.724884 -10.015625l2.828125 0l2.390625 7.109375l2.34375 -7.109375l2.75 0l-3.53125 9.640625l-0.640625 1.75q-0.34375 0.875 -0.671875 1.328125q-0.3125 0.46875 -0.71875 0.75q-0.40625 0.296875 -1.015625 0.453125q-0.59375 0.15625 -1.34375 0.15625q-0.765625 0 -1.5 -0.15625l-0.234375 -2.078125q0.609375 0.125 1.109375 0.125q0.9375 0 1.375 -0.546875q0.4375 -0.53125 0.671875 -1.375l-3.8125 -10.046875z" fill-rule="nonzero"/><path fill="#000000" d="m281.0673 186.36221q-0.6875 1.890625 -2.65625 4.140625l-1.640625 -1.9375q2.671875 -2.703125 3.40625 -7.703125l2.015625 0.671875q1.765625 0.796875 0.109375 1.140625q-0.171875 0.796875 -0.390625 1.5l5.21875 0l-0.390625 10.5q-0.09375 3.34375 -2.765625 3.34375l-2.40625 0l-0.34375 -2.1875l2.375 0q0.671875 0 0.734375 -0.96875l0.34375 -8.5l-3.609375 0zm0.5625 7.125q-1.296875 -1.84375 -2.796875 -3.265625l1.78125 -1.890625q1.796875 1.609375 2.890625 3.171875l-1.875 1.984375zm-9.0 -9.3125q0.359375 -1.109375 0.8125 -3.40625l2.296875 0.875q0.90625 0.890625 -0.125 1.046875q-0.171875 0.734375 -0.53125 1.484375l2.53125 0l0 13.03125l-2.265625 0l0 -0.890625l-2.484375 0l0 1.484375l-2.265625 0l0 -13.625l2.03125 0zm2.71875 2.1875l-2.484375 0l0 2.484375l2.484375 0l0 -2.484375zm0 4.6875l-2.484375 0l0 3.078125l2.484375 0l0 -3.078125zm26.59375 0.53125q0.640625 -1.265625 0.84375 -4.84375l-1.703125 0q0.203125 3.578125 0.859375 4.84375zm3.109375 -4.84375q-0.125 4.328125 -1.6875 7.0q0.96875 1.203125 3.421875 2.46875l-1.390625 2.34375q-2.78125 -1.828125 -3.5 -2.875q-1.4375 1.625 -5.421875 3.203125l-1.078125 -2.1875q4.140625 -1.6875 5.1875 -3.046875q-1.1875 -2.28125 -1.140625 -3.640625q0.09375 0.09375 -0.625 1.046875l-1.859375 -1.4375q2.375 -3.484375 2.859375 -8.640625l2.046875 0.484375q1.28125 0.828125 -0.03125 1.140625q-0.1875 1.078125 -0.421875 1.953125l4.921875 0l0 2.1875l-1.28125 0zm-6.984375 -3.59375q-0.390625 0.953125 -1.234375 2.0l-1.828125 -1.03125q0.796875 -1.28125 1.453125 -2.890625l1.78125 0.859375q0.890625 0.890625 -0.171875 1.0625zm-4.453125 9.875q0.59375 0.171875 1.171875 0.4375q0.328125 -0.390625 0.546875 -1.15625l-1.390625 0q-0.203125 0.453125 -0.328125 0.71875zm-1.484375 2.625l-1.890625 -1.078125q0.96875 -1.4375 1.40625 -2.265625l-2.5625 0l0 -1.96875l3.40625 0q0.328125 -0.703125 0.65625 -1.703125l1.875 0.5q0.9375 0.9375 -0.1875 1.0625l-0.0625 0.140625l4.0 0l0 1.96875l-1.203125 0q-0.3125 1.265625 -0.828125 1.984375q0.25 0.109375 1.34375 0.75l-1.046875 1.875q-1.15625 -0.71875 -1.546875 -0.890625q-1.828125 1.84375 -5.53125 2.328125l-0.8125 -2.09375q3.28125 -0.328125 4.28125 -1.203125q-0.234375 -0.109375 -0.75 -0.296875l-0.546875 0.890625zm0.953125 -14.875l1.59375 0q1.625 0.171875 0.453125 1.03125l0 2.59375l3.78125 0l0 1.96875l-2.65625 0q0.21875 0.265625 2.234375 1.328125l-1.25 1.9375q-1.640625 -0.984375 -2.109375 -1.53125l0 1.09375l-2.046875 0l0 -0.6875q-0.53125 0.671875 -2.96875 2.0625l-1.484375 -1.8125q2.671875 -1.375 3.546875 -2.390625l-2.953125 0l0 -1.96875l3.859375 0l0 -3.625zm-1.84375 4.375q-0.6875 -1.453125 -1.796875 -2.5625l1.875 -1.1875q1.15625 1.171875 1.75 2.5l-1.828125 1.25zm16.21875 11.515625q1.5 -1.765625 3.765625 -5.96875l1.90625 1.234375q-1.71875 3.4375 -2.90625 5.53125q0.328125 0.921875 -0.8125 0.6875l-1.953125 -1.484375zm14.0 -0.375q0 0.09375 -0.09375 0.078125l0 -1.234375l-5.15625 0l0 3.34375l-2.265625 0l0 -9.6875l9.6875 0l0 8.25q0 1.4375 -1.4375 1.4375l-1.796875 0l-0.46875 -2.1875l1.53125 0zm-8.484375 -14.03125l4.609375 0l0 -1.5625l1.828125 0q1.609375 0.21875 0.4375 1.03125l0 0.53125l4.671875 0l0 1.96875l-4.671875 0l0 0.25l4.15625 0l0 1.96875l-4.15625 0l0 0.1875l5.5625 0l0 1.96875l-13.40625 0l0 -1.96875l5.578125 0l0 -0.1875l-4.09375 0l0 -1.96875l4.09375 0l0 -0.25l-4.609375 0l0 -1.96875zm8.390625 10.640625l-5.15625 0l0 0.265625l5.15625 0l0 -0.265625zm0 -2.140625l-5.15625 0l0 0.171875l5.15625 0l0 -0.171875zm-11.25 -9.203125q1.5 0.9375 2.8125 2.4375l-1.625 1.734375q-1.453125 -1.453125 -2.828125 -2.421875l1.640625 -1.75zm-0.75 4.21875q1.65625 1.015625 2.8125 2.265625l-1.53125 1.859375q-1.3125 -1.3125 -2.828125 -2.453125l1.546875 -1.671875zm17.359375 5.3125q4.453125 -0.796875 6.234375 -2.109375l-3.578125 0l0 -1.671875l5.234375 0l-0.046875 0.390625l-0.0625 -0.015625l0 -2.34375l-5.09375 0l0 1.921875l-2.265625 0l0 -3.890625l7.359375 0l0 -0.1875l-5.875 0l0 -1.96875l14.0 0l0 1.96875l-5.859375 0l0 0.1875l7.265625 0l0 3.828125l-2.265625 0l0 -1.859375l-5.0 0l0 2.328125l-0.015625 0.03125l-0.03125 -0.390625l5.15625 0l0 1.671875l-3.203125 0q1.921875 1.078125 5.84375 1.828125l-0.6875 2.234375q-3.140625 -0.59375 -4.546875 -1.453125l0 0.71875l-7.3125 0l0 -0.515625q-1.328125 0.796875 -4.546875 1.46875l-0.703125 -2.171875zm10.140625 -0.75q-0.359375 -0.171875 -1.234375 -1.0625q-1.09375 1.03125 -1.140625 1.0625l2.375 0zm3.0 5.5q0 0.09375 -0.09375 0.09375l0 -1.390625l-4.125 0l0 4.15625l-2.265625 0l0 -4.15625l-4.59375 0l0 -1.96875l13.25 0l0 4.03125q0 1.421875 -1.359375 1.421875l-2.09375 0l-0.46875 -2.1875l1.75 0zm-10.484375 -10.390625l5.234375 0l0 1.671875l-5.234375 0l0 -1.671875zm7.34375 0l5.15625 0l0 1.671875l-5.15625 0l0 -1.671875z" fill-rule="nonzero"/><path fill="#cfe2f3" d="m57.093174 263.9672l41.05512 -27.370087l41.055122 27.370087l-20.527565 0l0 27.370087l-41.055115 0l0 -27.370087z" fill-rule="evenodd"/><path stroke="#000000" stroke-width="1.0" stroke-linejoin="round" stroke-linecap="butt" d="m57.093174 263.9672l41.05512 -27.370087l41.055122 27.370087l-20.527565 0l0 27.370087l-41.055115 0l0 -27.370087z" fill-rule="evenodd"/><path fill="#cfe2f3" d="m0 306.1811l433.13385 0l0 72.648315l-433.13385 0z" fill-rule="evenodd"/><path fill="#000000" fill-opacity="0.0" d="m54.14173 306.1811l0 72.648315m324.8504 -72.648315l0 72.648315" fill-rule="evenodd"/><path fill="#000000" fill-opacity="0.0" d="m0 306.1811l433.13385 0l0 72.648315l-433.13385 0z" fill-rule="evenodd"/><path stroke="#000000" stroke-width="1.0" stroke-linejoin="round" stroke-linecap="butt" d="m54.14173 306.1811l0 72.648315m324.8504 -72.648315l0 72.648315" fill-rule="evenodd"/><path stroke="#000000" stroke-width="1.0" stroke-linejoin="round" stroke-linecap="butt" d="m0 306.1811l433.13385 0l0 72.648315l-433.13385 0z" fill-rule="evenodd"/><path fill="#000000" d="m64.51673 338.06525l0 -13.828125l4.171875 0l2.515625 9.4375l2.484375 -9.4375l4.1875 0l0 13.828125l-2.59375 0l0 -10.890625l-2.75 10.890625l-2.6875 0l-2.734375 -10.890625l0 10.890625l-2.59375 0zm19.147354 -1.984375l0 -3.609375l-3.625 0l0 -2.46875l3.625 0l0 -3.609375l2.421875 0l0 3.609375l3.625 0l0 2.46875l-3.625 0l0 3.609375l-2.421875 0zm8.756073 -5.390625l0 -2.640625l2.65625 0l0 2.640625l-2.65625 0zm0 7.375l0 -2.65625l2.65625 0l0 2.65625l-2.65625 0zm16.660751 0l0 -13.828125l4.171875 0l2.515625 9.4375l2.484375 -9.4375l4.1875 0l0 13.828125l-2.59375 0l0 -10.890625l-2.75 10.890625l-2.6875 0l-2.734375 -10.890625l0 10.890625l-2.59375 0zm21.912987 -3.1875l2.640625 0.4375q-0.5 1.453125 -1.609375 2.21875q-1.09375 0.75 -2.75 0.75q-2.6093826 0 -3.8593826 -1.703125q-1.0 -1.359375 -1.0 -3.453125q0 -2.484375 1.296875 -3.890625q1.3125 -1.421875 3.2968826 -1.421875q2.25 0 3.53125 1.484375q1.296875 1.46875 1.234375 4.515625l-6.6406326 0q0.03125 1.1875 0.640625 1.84375q0.6250076 0.65625 1.5312576 0.65625q0.625 0 1.046875 -0.34375q0.421875 -0.34375 0.640625 -1.09375zm0.15625 -2.6875q-0.03125 -1.140625 -0.59375 -1.734375q-0.5625 -0.609375 -1.375 -0.609375q-0.875 0 -1.4375076 0.625q-0.5625 0.640625 -0.5625 1.71875l3.9687576 0zm4.5931396 -4.140625l2.453125 0l0 1.359375q1.296875 -1.59375 3.109375 -1.59375q0.96875 0 1.671875 0.40625q0.71875 0.390625 1.171875 1.1875q0.65625 -0.796875 1.421875 -1.1875q0.765625 -0.40625 1.625 -0.40625q1.109375 0 1.875 0.453125q0.765625 0.4375 1.140625 1.3125q0.28125 0.640625 0.28125 2.078125l0 6.40625l-2.65625 0l0 -5.734375q0 -1.484375 -0.28125 -1.921875q-0.359375 -0.5625 -1.125 -0.5625q-0.5625 0 -1.0625 0.34375q-0.484375 0.328125 -0.703125 0.984375q-0.203125 0.65625 -0.203125 2.078125l0 4.8125l-2.65625 0l0 -5.5q0 -1.453125 -0.140625 -1.875q-0.140625 -0.4375 -0.4375 -0.640625q-0.296875 -0.203125 -0.8125 -0.203125q-0.609375 0 -1.109375 0.328125q-0.484375 0.328125 -0.703125 0.953125q-0.203125 0.625 -0.203125 2.0625l0 4.875l-2.65625 0l0 -10.015625zm16.779556 4.859375q0 -1.3125 0.640625 -2.546875q0.65625 -1.25 1.84375 -1.890625q1.203125 -0.65625 2.671875 -0.65625q2.265625 0 3.71875 1.484375q1.46875 1.46875 1.46875 3.71875q0 2.28125 -1.46875 3.78125q-1.46875 1.484375 -3.703125 1.484375q-1.375 0 -2.625 -0.609375q-1.25 -0.625 -1.90625 -1.828125q-0.640625 -1.203125 -0.640625 -2.9375zm2.703125 0.140625q0 1.5 0.703125 2.296875q0.71875 0.78125 1.765625 0.78125q1.03125 0 1.734375 -0.78125q0.703125 -0.796875 0.703125 -2.3125q0 -1.46875 -0.703125 -2.265625q-0.703125 -0.796875 -1.734375 -0.796875q-1.046875 0 -1.765625 0.796875q-0.703125 0.796875 -0.703125 2.28125zm12.2438965 5.015625l-2.640625 0l0 -10.015625l2.453125 0l0 1.421875q0.640625 -1.015625 1.140625 -1.328125q0.5 -0.328125 1.140625 -0.328125q0.90625 0 1.75 0.5l-0.8125 2.3125q-0.671875 -0.4375 -1.25 -0.4375q-0.5625 0 -0.953125 0.3125q-0.375 0.3125 -0.609375 1.109375q-0.21875 0.796875 -0.21875 3.359375l0 3.09375zm3.7248688 -10.015625l2.828125 0l2.390625 7.109375l2.34375 -7.109375l2.75 0l-3.53125 9.640625l-0.640625 1.75q-0.34375 0.875 -0.671875 1.328125q-0.3125 0.46875 -0.71875 0.75q-0.40625 0.296875 -1.015625 0.453125q-0.59375 0.15625 -1.34375 0.15625q-0.765625 0 -1.5 -0.15625l-0.234375 -2.078125q0.609375 0.125 1.109375 0.125q0.9375 0 1.375 -0.546875q0.4375 -0.53125 0.671875 -1.375l-3.8125 -10.046875zm16.791245 2.3125l0 -2.4375l9.671875 0l0 2.4375l-9.671875 0zm0 4.1875l0 -2.4375l9.671875 0l0 2.4375l-9.671875 0zm17.235428 3.515625l0 -13.828125l4.171875 0l2.515625 9.4375l2.484375 -9.4375l4.1875 0l0 13.828125l-2.59375 0l0 -10.890625l-2.75 10.890625l-2.6875 0l-2.734375 -10.890625l0 10.890625l-2.59375 0zm21.91298 -3.1875l2.640625 0.4375q-0.5 1.453125 -1.609375 2.21875q-1.09375 0.75 -2.75 0.75q-2.609375 0 -3.859375 -1.703125q-1.0 -1.359375 -1.0 -3.453125q0 -2.484375 1.296875 -3.890625q1.3125 -1.421875 3.296875 -1.421875q2.25 0 3.53125 1.484375q1.296875 1.46875 1.234375 4.515625l-6.640625 0q0.03125 1.1875 0.640625 1.84375q0.625 0.65625 1.53125 0.65625q0.625 0 1.046875 -0.34375q0.421875 -0.34375 0.640625 -1.09375zm0.15625 -2.6875q-0.03125 -1.140625 -0.59375 -1.734375q-0.5625 -0.609375 -1.375 -0.609375q-0.875 0 -1.4375 0.625q-0.5625 0.640625 -0.5625 1.71875l3.96875 0zm4.5931396 -4.140625l2.453125 0l0 1.359375q1.296875 -1.59375 3.109375 -1.59375q0.96875 0 1.671875 0.40625q0.71875 0.390625 1.171875 1.1875q0.65625 -0.796875 1.421875 -1.1875q0.765625 -0.40625 1.625 -0.40625q1.109375 0 1.875 0.453125q0.765625 0.4375 1.140625 1.3125q0.28125 0.640625 0.28125 2.078125l0 6.40625l-2.65625 0l0 -5.734375q0 -1.484375 -0.28125 -1.921875q-0.359375 -0.5625 -1.125 -0.5625q-0.5625 0 -1.0625 0.34375q-0.484375 0.328125 -0.703125 0.984375q-0.203125 0.65625 -0.203125 2.078125l0 4.8125l-2.65625 0l0 -5.5q0 -1.453125 -0.140625 -1.875q-0.140625 -0.4375 -0.4375 -0.640625q-0.296875 -0.203125 -0.8125 -0.203125q-0.609375 0 -1.109375 0.328125q-0.484375 0.328125 -0.703125 0.953125q-0.203125 0.625 -0.203125 2.0625l0 4.875l-2.65625 0l0 -10.015625zm16.779556 4.859375q0 -1.3125 0.640625 -2.546875q0.65625 -1.25 1.84375 -1.890625q1.203125 -0.65625 2.671875 -0.65625q2.265625 0 3.71875 1.484375q1.46875 1.46875 1.46875 3.71875q0 2.28125 -1.46875 3.78125q-1.46875 1.484375 -3.703125 1.484375q-1.375 0 -2.625 -0.609375q-1.25 -0.625 -1.90625 -1.828125q-0.640625 -1.203125 -0.640625 -2.9375zm2.703125 0.140625q0 1.5 0.703125 2.296875q0.71875 0.78125 1.765625 0.78125q1.03125 0 1.734375 -0.78125q0.703125 -0.796875 0.703125 -2.3125q0 -1.46875 -0.703125 -2.265625q-0.703125 -0.796875 -1.734375 -0.796875q-1.046875 0 -1.765625 0.796875q-0.703125 0.796875 -0.703125 2.28125zm12.2438965 5.015625l-2.640625 0l0 -10.015625l2.453125 0l0 1.421875q0.640625 -1.015625 1.140625 -1.328125q0.5 -0.328125 1.140625 -0.328125q0.90625 0 1.75 0.5l-0.8125 2.3125q-0.671875 -0.4375 -1.25 -0.4375q-0.5625 0 -0.953125 0.3125q-0.375 0.3125 -0.609375 1.109375q-0.21875 0.796875 -0.21875 3.359375l0 3.09375zm3.7248535 -10.015625l2.828125 0l2.390625 7.109375l2.34375 -7.109375l2.75 0l-3.53125 9.640625l-0.640625 1.75q-0.34375 0.875 -0.671875 1.328125q-0.3125 0.46875 -0.71875 0.75q-0.40625 0.296875 -1.015625 0.453125q-0.59375 0.15625 -1.34375 0.15625q-0.765625 0 -1.5 -0.15625l-0.234375 -2.078125q0.609375 0.125 1.109375 0.125q0.9375 0 1.375 -0.546875q0.4375 -0.53125 0.671875 -1.375l-3.8125 -10.046875zm20.41626 8.03125l0 -3.609375l-3.625 0l0 -2.46875l3.625 0l0 -3.609375l2.421875 0l0 3.609375l3.625 0l0 2.46875l-3.625 0l0 3.609375l-2.421875 0z" fill-rule="nonzero"/><path fill="#000000" d="m314.19 329.04962l3.65625 0l0 2.1875l-3.125 0l0 1.4375l4.078125 0l0 2.203125l-4.078125 0l0 4.53125l-2.265625 0l0 -4.53125l-2.109375 0q0 3.515625 -4.765625 5.296875l-0.890625 -2.234375q3.328125 -1.0625 3.375 -3.0625l-3.25 0l0 -2.203125l3.34375 0l0 -1.4375l-2.75 0l0 -2.1875l2.8125 0q-0.125 -0.1875 -0.984375 -1.125l0.46875 -0.40625l-2.78125 0l0 5.40625q0 3.90625 -2.03125 6.578125l-1.84375 -1.609375q1.609375 -2.421875 1.609375 -5.046875l0 -10.265625l14.8125 0l0 4.9375l-2.84375 -0.1875l0.078125 -0.1875q1.75 0.875 0.0625 1.09375l-0.578125 0.8125zm-4.234375 -1.578125q0.078125 0 0.890625 1.3125l-0.34375 0.265625l1.296875 0l0.78125 -1.53125l-2.625 -0.046875zm5.25 -1.921875l0 -1.0l-10.28125 0l0 1.0l10.28125 0zm-2.75 7.125l0 -1.4375l-2.03125 0l0 1.4375l2.03125 0zm19.609375 1.71875q-0.078125 0.03125 -1.1875 -1.0l-4.1875 0q-0.59375 0.703125 -0.890625 0.921875l1.875 0l0 -1.1875l1.828125 0q1.609375 0.21875 0.4375 1.03125l0 0.15625l2.125 0.078125zm5.25 2.484375q-2.15625 -0.546875 -2.546875 -0.828125l0 1.625q0 1.578125 -1.578125 1.578125l-1.5 0l-0.46875 -2.1875l1.375 0q0 0.09375 -0.09375 0.09375l0 -0.875l-2.5625 0l0 3.5625l-2.265625 0l0 -3.5625l-2.046875 0l0 2.828125l-2.265625 0l0 -3.125q-0.53125 0.390625 -2.640625 1.125l-0.8125 -1.96875q2.984375 -1.078125 3.765625 -1.75l-3.203125 0l0 -1.96875l5.09375 0l0.125 -0.1875l-2.84375 0l0 -5.53125l2.15625 0l0 -0.1875l-4.53125 0l0 -1.96875l4.53125 0l0 -1.40625l1.609375 0q1.609375 0.21875 0.4375 1.03125l0 0.375l3.375 0l0 -1.40625l1.609375 0q1.640625 0.21875 0.421875 1.03125l0 0.375l4.6875 0l0 1.96875l-4.6875 0l0 0.1875l2.375 0l0 5.53125l-6.71875 0l-0.125 0.1875l9.21875 0l0 1.96875l-3.03125 0q0.515625 0.359375 3.796875 1.34375l-0.65625 2.140625zm-10.265625 -11.359375l0 0.1875l3.375 0l0 -0.1875l-3.375 0zm-2.15625 1.859375l0 0.25l7.90625 0l0 -0.25l-7.90625 0zm0 1.921875l0 0.265625l7.90625 0l0 -0.265625l-7.90625 0zm21.03125 6.421875l0 -13.140625l2.078125 0q1.671875 0.359375 0.421875 1.1875l0 3.71875l6.0 0l0 2.40625l-6.0 0l0 5.828125l7.71875 0l0 2.421875l-16.890625 0l0 -2.421875l6.671875 0z" fill-rule="nonzero"/><path fill="#000000" d="m75.46986 350.51837q-0.6875 1.890625 -2.65625 4.140625l-1.640625 -1.9375q2.671875 -2.703125 3.40625 -7.703125l2.015625 0.671875q1.765625 0.796875 0.109375 1.140625q-0.171875 0.796875 -0.390625 1.5l5.21875 0l-0.390625 10.5q-0.09375 3.34375 -2.765625 3.34375l-2.40625 0l-0.34375 -2.1875l2.375 0q0.671875 0 0.734375 -0.96875l0.34375 -8.5l-3.609375 0zm0.5625 7.125q-1.296875 -1.84375 -2.796875 -3.265625l1.78125 -1.890625q1.796875 1.609375 2.890625 3.171875l-1.875 1.984375zm-9.0 -9.3125q0.359375 -1.109375 0.8125 -3.40625l2.296875 0.875q0.90625 0.890625 -0.125 1.046875q-0.171875 0.734375 -0.53125 1.484375l2.53125 0l0 13.03125l-2.265625 0l0 -0.890625l-2.484375 0l0 1.484375l-2.265625 0l0 -13.625l2.03125 0zm2.71875 2.1875l-2.484375 0l0 2.484375l2.484375 0l0 -2.484375zm0 4.6875l-2.484375 0l0 3.078125l2.484375 0l0 -3.078125zm26.59375 0.53125q0.640625 -1.265625 0.84375 -4.84375l-1.703125 0q0.203125 3.578125 0.859375 4.84375zm3.109375 -4.84375q-0.125 4.328125 -1.6875 7.0q0.96875 1.203125 3.421875 2.46875l-1.390625 2.34375q-2.78125 -1.828125 -3.5 -2.875q-1.4375 1.625 -5.421875 3.203125l-1.078125 -2.1875q4.140625 -1.6875 5.1875 -3.046875q-1.1875 -2.28125 -1.140625 -3.640625q0.09375 0.09375 -0.625 1.046875l-1.859375 -1.4375q2.375 -3.484375 2.859375 -8.640625l2.046875 0.484375q1.28125 0.828125 -0.03125 1.140625q-0.1875 1.078125 -0.421875 1.953125l4.921875 0l0 2.1875l-1.28125 0zm-6.984375 -3.59375q-0.390625 0.953125 -1.234375 2.0l-1.828125 -1.03125q0.796875 -1.28125 1.453125 -2.890625l1.78125 0.859375q0.890625 0.890625 -0.171875 1.0625zm-4.453125 9.875q0.59375 0.171875 1.171875 0.4375q0.328125 -0.390625 0.546875 -1.15625l-1.390625 0q-0.203125 0.453125 -0.328125 0.71875zm-1.484375 2.625l-1.890625 -1.078125q0.96875 -1.4375 1.40625 -2.265625l-2.5625 0l0 -1.96875l3.40625 0q0.328125 -0.703125 0.65625 -1.703125l1.875 0.5q0.9375 0.9375 -0.1875 1.0625l-0.0625 0.140625l4.0 0l0 1.96875l-1.203125 0q-0.3125 1.265625 -0.828125 1.984375q0.25 0.109375 1.34375 0.75l-1.046875 1.875q-1.15625 -0.71875 -1.546875 -0.890625q-1.828125 1.84375 -5.53125 2.328125l-0.8125 -2.09375q3.28125 -0.328125 4.28125 -1.203125q-0.234375 -0.109375 -0.75 -0.296875l-0.546875 0.890625zm0.953125 -14.875l1.59375 0q1.625 0.171875 0.453125 1.03125l0 2.59375l3.78125 0l0 1.96875l-2.65625 0q0.21875 0.265625 2.234375 1.328125l-1.25 1.9375q-1.640625 -0.984375 -2.109375 -1.53125l0 1.09375l-2.046875 0l0 -0.6875q-0.53125 0.671875 -2.96875 2.0625l-1.484375 -1.8125q2.671875 -1.375 3.546875 -2.390625l-2.953125 0l0 -1.96875l3.859375 0l0 -3.625zm-1.84375 4.375q-0.6875 -1.453125 -1.796875 -2.5625l1.875 -1.1875q1.15625 1.171875 1.75 2.5l-1.828125 1.25z" fill-rule="nonzero"/></g></svg>